<mxfile host="app.diagrams.net" agent="Mozilla/5.0 (Windows NT 10.0; Win64; x64) AppleWebKit/537.36 (KHTML, like Gecko) Chrome/140.0.0.0 Safari/537.36" version="28.2.5">
  <diagram name="PÃ¡gina-1" id="DKzVSBEfAT9wJZPkGja6">
    <mxGraphModel dx="562" dy="749" grid="1" gridSize="10" guides="1" tooltips="1" connect="1" arrows="1" fold="1" page="1" pageScale="1" pageWidth="827" pageHeight="1169" math="0" shadow="0">
      <root>
        <mxCell id="0" />
        <mxCell id="1" parent="0" />
        <mxCell id="FraqzUx0wvIa7iECId8c-2" value="Viviendas" style="whiteSpace=wrap;html=1;align=center;fillColor=#dae8fc;strokeColor=#6c8ebf;" vertex="1" parent="1">
          <mxGeometry x="950" y="740" width="100" height="40" as="geometry" />
        </mxCell>
        <mxCell id="FraqzUx0wvIa7iECId8c-3" value="Caracteristicas" style="ellipse;whiteSpace=wrap;html=1;align=center;fillColor=#e1d5e7;strokeColor=#9673a6;" vertex="1" parent="1">
          <mxGeometry x="927" y="930" width="100" height="40" as="geometry" />
        </mxCell>
        <mxCell id="FraqzUx0wvIa7iECId8c-4" value="Ubicacion" style="ellipse;whiteSpace=wrap;html=1;align=center;fillColor=#e1d5e7;strokeColor=#9673a6;" vertex="1" parent="1">
          <mxGeometry x="870" y="850" width="100" height="40" as="geometry" />
        </mxCell>
        <mxCell id="FraqzUx0wvIa7iECId8c-6" value="Personas que abitan" style="ellipse;whiteSpace=wrap;html=1;align=center;fillColor=#e1d5e7;strokeColor=#9673a6;" vertex="1" parent="1">
          <mxGeometry x="1100" y="860" width="100" height="40" as="geometry" />
        </mxCell>
        <mxCell id="FraqzUx0wvIa7iECId8c-7" value="Cobra" style="shape=rhombus;perimeter=rhombusPerimeter;whiteSpace=wrap;html=1;align=center;fillColor=#fff2cc;strokeColor=#d6b656;" vertex="1" parent="1">
          <mxGeometry x="940" y="540" width="120" height="60" as="geometry" />
        </mxCell>
        <mxCell id="FraqzUx0wvIa7iECId8c-8" value="Resivos" style="whiteSpace=wrap;html=1;align=center;fillColor=#dae8fc;strokeColor=#6c8ebf;" vertex="1" parent="1">
          <mxGeometry x="950" y="270" width="100" height="40" as="geometry" />
        </mxCell>
        <mxCell id="FraqzUx0wvIa7iECId8c-9" value="Numero de registro" style="ellipse;whiteSpace=wrap;html=1;align=center;fillColor=#e1d5e7;strokeColor=#9673a6;" vertex="1" parent="1">
          <mxGeometry x="827" y="190" width="100" height="40" as="geometry" />
        </mxCell>
        <mxCell id="FraqzUx0wvIa7iECId8c-10" value="Direccion de la vivienda" style="ellipse;whiteSpace=wrap;html=1;align=center;fillColor=#e1d5e7;strokeColor=#9673a6;" vertex="1" parent="1">
          <mxGeometry x="990" y="190" width="100" height="40" as="geometry" />
        </mxCell>
        <mxCell id="FraqzUx0wvIa7iECId8c-11" value="Calle" style="ellipse;whiteSpace=wrap;html=1;align=center;fillColor=#ffe6cc;strokeColor=#d79b00;" vertex="1" parent="1">
          <mxGeometry x="880" y="110" width="100" height="40" as="geometry" />
        </mxCell>
        <mxCell id="FraqzUx0wvIa7iECId8c-12" value="Numero" style="ellipse;whiteSpace=wrap;html=1;align=center;fillColor=#ffe6cc;strokeColor=#d79b00;" vertex="1" parent="1">
          <mxGeometry x="1000" y="110" width="100" height="40" as="geometry" />
        </mxCell>
        <mxCell id="FraqzUx0wvIa7iECId8c-13" value="coloinia" style="ellipse;whiteSpace=wrap;html=1;align=center;fillColor=#ffe6cc;strokeColor=#d79b00;" vertex="1" parent="1">
          <mxGeometry x="1141" y="110" width="100" height="40" as="geometry" />
        </mxCell>
        <mxCell id="FraqzUx0wvIa7iECId8c-14" value="Num_metros al cuadrado" style="ellipse;whiteSpace=wrap;html=1;align=center;fillColor=#e1d5e7;strokeColor=#9673a6;" vertex="1" parent="1">
          <mxGeometry x="1150" y="190" width="100" height="40" as="geometry" />
        </mxCell>
        <mxCell id="FraqzUx0wvIa7iECId8c-15" value="Rfc" style="ellipse;whiteSpace=wrap;html=1;align=center;fillColor=#e1d5e7;strokeColor=#9673a6;" vertex="1" parent="1">
          <mxGeometry x="880" y="360" width="100" height="40" as="geometry" />
        </mxCell>
        <mxCell id="FraqzUx0wvIa7iECId8c-16" value="Nombres de los propietarios" style="ellipse;whiteSpace=wrap;html=1;align=center;fillColor=#e1d5e7;strokeColor=#9673a6;" vertex="1" parent="1">
          <mxGeometry x="1070" y="350" width="100" height="40" as="geometry" />
        </mxCell>
        <mxCell id="FraqzUx0wvIa7iECId8c-18" value="Impuesto" style="whiteSpace=wrap;html=1;align=center;fillColor=#dae8fc;strokeColor=#6c8ebf;" vertex="1" parent="1">
          <mxGeometry x="1380" y="270" width="100" height="40" as="geometry" />
        </mxCell>
        <mxCell id="FraqzUx0wvIa7iECId8c-19" value="Ponen" style="shape=rhombus;perimeter=rhombusPerimeter;whiteSpace=wrap;html=1;align=center;fillColor=#fff2cc;strokeColor=#d6b656;" vertex="1" parent="1">
          <mxGeometry x="1180" y="260" width="120" height="60" as="geometry" />
        </mxCell>
        <mxCell id="FraqzUx0wvIa7iECId8c-20" value="" style="endArrow=none;html=1;rounded=0;exitX=1;exitY=0.5;exitDx=0;exitDy=0;entryX=0;entryY=0;entryDx=0;entryDy=0;" edge="1" parent="1" source="FraqzUx0wvIa7iECId8c-2" target="FraqzUx0wvIa7iECId8c-6">
          <mxGeometry relative="1" as="geometry">
            <mxPoint x="520" y="240" as="sourcePoint" />
            <mxPoint x="680" y="240" as="targetPoint" />
          </mxGeometry>
        </mxCell>
        <mxCell id="FraqzUx0wvIa7iECId8c-22" value="" style="endArrow=none;html=1;rounded=0;exitX=0.5;exitY=0;exitDx=0;exitDy=0;entryX=0.25;entryY=1;entryDx=0;entryDy=0;" edge="1" parent="1" source="FraqzUx0wvIa7iECId8c-4" target="FraqzUx0wvIa7iECId8c-2">
          <mxGeometry relative="1" as="geometry">
            <mxPoint x="660" y="380" as="sourcePoint" />
            <mxPoint x="820" y="380" as="targetPoint" />
          </mxGeometry>
        </mxCell>
        <mxCell id="FraqzUx0wvIa7iECId8c-23" value="" style="endArrow=none;html=1;rounded=0;exitX=0.5;exitY=0;exitDx=0;exitDy=0;entryX=0.5;entryY=1;entryDx=0;entryDy=0;" edge="1" parent="1" source="FraqzUx0wvIa7iECId8c-3" target="FraqzUx0wvIa7iECId8c-2">
          <mxGeometry relative="1" as="geometry">
            <mxPoint x="660" y="380" as="sourcePoint" />
            <mxPoint x="820" y="380" as="targetPoint" />
          </mxGeometry>
        </mxCell>
        <mxCell id="FraqzUx0wvIa7iECId8c-25" value="" style="fontSize=12;html=1;endArrow=ERone;endFill=1;rounded=0;entryX=0.5;entryY=0;entryDx=0;entryDy=0;exitX=0.5;exitY=1;exitDx=0;exitDy=0;" edge="1" parent="1" source="FraqzUx0wvIa7iECId8c-7" target="FraqzUx0wvIa7iECId8c-2">
          <mxGeometry width="100" height="100" relative="1" as="geometry">
            <mxPoint x="490" y="460" as="sourcePoint" />
            <mxPoint x="590" y="360" as="targetPoint" />
          </mxGeometry>
        </mxCell>
        <mxCell id="FraqzUx0wvIa7iECId8c-26" value="" style="fontSize=12;html=1;endArrow=ERmany;rounded=0;entryX=0.5;entryY=1;entryDx=0;entryDy=0;exitX=0.5;exitY=0;exitDx=0;exitDy=0;" edge="1" parent="1" source="FraqzUx0wvIa7iECId8c-7" target="FraqzUx0wvIa7iECId8c-8">
          <mxGeometry width="100" height="100" relative="1" as="geometry">
            <mxPoint x="740" y="400" as="sourcePoint" />
            <mxPoint x="840" y="300" as="targetPoint" />
          </mxGeometry>
        </mxCell>
        <mxCell id="FraqzUx0wvIa7iECId8c-27" value="" style="endArrow=none;html=1;rounded=0;exitX=1;exitY=0;exitDx=0;exitDy=0;entryX=0;entryY=1;entryDx=0;entryDy=0;" edge="1" parent="1" source="FraqzUx0wvIa7iECId8c-15" target="FraqzUx0wvIa7iECId8c-8">
          <mxGeometry relative="1" as="geometry">
            <mxPoint x="860" y="520" as="sourcePoint" />
            <mxPoint x="1020" y="520" as="targetPoint" />
          </mxGeometry>
        </mxCell>
        <mxCell id="FraqzUx0wvIa7iECId8c-28" value="" style="endArrow=none;html=1;rounded=0;exitX=0.75;exitY=1;exitDx=0;exitDy=0;entryX=0.5;entryY=0;entryDx=0;entryDy=0;" edge="1" parent="1" source="FraqzUx0wvIa7iECId8c-8" target="FraqzUx0wvIa7iECId8c-16">
          <mxGeometry relative="1" as="geometry">
            <mxPoint x="1000" y="400" as="sourcePoint" />
            <mxPoint x="1160" y="400" as="targetPoint" />
          </mxGeometry>
        </mxCell>
        <mxCell id="FraqzUx0wvIa7iECId8c-29" value="" style="endArrow=none;html=1;rounded=0;exitX=1;exitY=0.5;exitDx=0;exitDy=0;entryX=0.5;entryY=0;entryDx=0;entryDy=0;" edge="1" parent="1" source="FraqzUx0wvIa7iECId8c-9" target="FraqzUx0wvIa7iECId8c-8">
          <mxGeometry relative="1" as="geometry">
            <mxPoint x="1000" y="400" as="sourcePoint" />
            <mxPoint x="1160" y="400" as="targetPoint" />
          </mxGeometry>
        </mxCell>
        <mxCell id="FraqzUx0wvIa7iECId8c-30" value="" style="endArrow=none;html=1;rounded=0;entryX=0.5;entryY=1;entryDx=0;entryDy=0;exitX=0.75;exitY=0;exitDx=0;exitDy=0;" edge="1" parent="1" source="FraqzUx0wvIa7iECId8c-8" target="FraqzUx0wvIa7iECId8c-10">
          <mxGeometry relative="1" as="geometry">
            <mxPoint x="1000" y="400" as="sourcePoint" />
            <mxPoint x="1160" y="400" as="targetPoint" />
          </mxGeometry>
        </mxCell>
        <mxCell id="FraqzUx0wvIa7iECId8c-31" value="" style="endArrow=none;html=1;rounded=0;entryX=0;entryY=0.5;entryDx=0;entryDy=0;exitX=1;exitY=0;exitDx=0;exitDy=0;" edge="1" parent="1" source="FraqzUx0wvIa7iECId8c-8" target="FraqzUx0wvIa7iECId8c-14">
          <mxGeometry relative="1" as="geometry">
            <mxPoint x="1000" y="400" as="sourcePoint" />
            <mxPoint x="1160" y="400" as="targetPoint" />
          </mxGeometry>
        </mxCell>
        <mxCell id="FraqzUx0wvIa7iECId8c-32" value="" style="endArrow=none;html=1;rounded=0;entryX=0.5;entryY=1;entryDx=0;entryDy=0;exitX=0.5;exitY=0;exitDx=0;exitDy=0;" edge="1" parent="1" source="FraqzUx0wvIa7iECId8c-10" target="FraqzUx0wvIa7iECId8c-12">
          <mxGeometry relative="1" as="geometry">
            <mxPoint x="1000" y="400" as="sourcePoint" />
            <mxPoint x="1160" y="400" as="targetPoint" />
          </mxGeometry>
        </mxCell>
        <mxCell id="FraqzUx0wvIa7iECId8c-33" value="" style="endArrow=none;html=1;rounded=0;exitX=1;exitY=1;exitDx=0;exitDy=0;entryX=0;entryY=0;entryDx=0;entryDy=0;" edge="1" parent="1" source="FraqzUx0wvIa7iECId8c-11" target="FraqzUx0wvIa7iECId8c-10">
          <mxGeometry relative="1" as="geometry">
            <mxPoint x="940" y="450" as="sourcePoint" />
            <mxPoint x="1100" y="450" as="targetPoint" />
          </mxGeometry>
        </mxCell>
        <mxCell id="FraqzUx0wvIa7iECId8c-34" value="" style="endArrow=none;html=1;rounded=0;entryX=0;entryY=0.5;entryDx=0;entryDy=0;exitX=1;exitY=0;exitDx=0;exitDy=0;" edge="1" parent="1" source="FraqzUx0wvIa7iECId8c-10" target="FraqzUx0wvIa7iECId8c-13">
          <mxGeometry relative="1" as="geometry">
            <mxPoint x="1090" y="170" as="sourcePoint" />
            <mxPoint x="1160" y="400" as="targetPoint" />
          </mxGeometry>
        </mxCell>
        <mxCell id="FraqzUx0wvIa7iECId8c-36" value="" style="edgeStyle=entityRelationEdgeStyle;fontSize=12;html=1;endArrow=ERone;endFill=1;rounded=0;entryX=0;entryY=0.5;entryDx=0;entryDy=0;exitX=1;exitY=0.5;exitDx=0;exitDy=0;" edge="1" parent="1" source="FraqzUx0wvIa7iECId8c-19" target="FraqzUx0wvIa7iECId8c-18">
          <mxGeometry width="100" height="100" relative="1" as="geometry">
            <mxPoint x="980" y="450" as="sourcePoint" />
            <mxPoint x="1080" y="350" as="targetPoint" />
          </mxGeometry>
        </mxCell>
        <mxCell id="FraqzUx0wvIa7iECId8c-38" value="" style="edgeStyle=entityRelationEdgeStyle;fontSize=12;html=1;endArrow=ERmany;rounded=0;entryX=1;entryY=0.5;entryDx=0;entryDy=0;exitX=0;exitY=0.5;exitDx=0;exitDy=0;" edge="1" parent="1" source="FraqzUx0wvIa7iECId8c-19" target="FraqzUx0wvIa7iECId8c-8">
          <mxGeometry width="100" height="100" relative="1" as="geometry">
            <mxPoint x="980" y="450" as="sourcePoint" />
            <mxPoint x="1080" y="350" as="targetPoint" />
          </mxGeometry>
        </mxCell>
        <mxCell id="FraqzUx0wvIa7iECId8c-39" value="Municipio" style="ellipse;whiteSpace=wrap;html=1;align=center;fillColor=#e1d5e7;strokeColor=#9673a6;" vertex="1" parent="1">
          <mxGeometry x="1310" y="160" width="100" height="40" as="geometry" />
        </mxCell>
        <mxCell id="FraqzUx0wvIa7iECId8c-43" value="Colonia" style="ellipse;whiteSpace=wrap;html=1;align=center;fillColor=#e1d5e7;strokeColor=#9673a6;" vertex="1" parent="1">
          <mxGeometry x="1430" y="160" width="100" height="40" as="geometry" />
        </mxCell>
        <mxCell id="FraqzUx0wvIa7iECId8c-44" value="M2" style="ellipse;whiteSpace=wrap;html=1;align=center;fillColor=#e1d5e7;strokeColor=#9673a6;" vertex="1" parent="1">
          <mxGeometry x="1520" y="200" width="100" height="40" as="geometry" />
        </mxCell>
        <mxCell id="FraqzUx0wvIa7iECId8c-45" value="Precio_trasacion" style="ellipse;whiteSpace=wrap;html=1;align=center;fillColor=#e1d5e7;strokeColor=#9673a6;" vertex="1" parent="1">
          <mxGeometry x="1540" y="270" width="100" height="40" as="geometry" />
        </mxCell>
        <mxCell id="FraqzUx0wvIa7iECId8c-46" value="" style="endArrow=none;html=1;rounded=0;entryX=1;entryY=1;entryDx=0;entryDy=0;exitX=0;exitY=0;exitDx=0;exitDy=0;" edge="1" parent="1" source="FraqzUx0wvIa7iECId8c-18" target="FraqzUx0wvIa7iECId8c-39">
          <mxGeometry relative="1" as="geometry">
            <mxPoint x="1430" y="400" as="sourcePoint" />
            <mxPoint x="1590" y="400" as="targetPoint" />
          </mxGeometry>
        </mxCell>
        <mxCell id="FraqzUx0wvIa7iECId8c-47" value="" style="endArrow=none;html=1;rounded=0;exitX=0;exitY=1;exitDx=0;exitDy=0;entryX=0.5;entryY=0;entryDx=0;entryDy=0;" edge="1" parent="1" source="FraqzUx0wvIa7iECId8c-43" target="FraqzUx0wvIa7iECId8c-18">
          <mxGeometry relative="1" as="geometry">
            <mxPoint x="1480" y="230" as="sourcePoint" />
            <mxPoint x="1640" y="230" as="targetPoint" />
          </mxGeometry>
        </mxCell>
        <mxCell id="FraqzUx0wvIa7iECId8c-48" value="" style="endArrow=none;html=1;rounded=0;entryX=0;entryY=1;entryDx=0;entryDy=0;exitX=1;exitY=0;exitDx=0;exitDy=0;" edge="1" parent="1" source="FraqzUx0wvIa7iECId8c-18" target="FraqzUx0wvIa7iECId8c-44">
          <mxGeometry relative="1" as="geometry">
            <mxPoint x="1380" y="450" as="sourcePoint" />
            <mxPoint x="1540" y="450" as="targetPoint" />
          </mxGeometry>
        </mxCell>
        <mxCell id="FraqzUx0wvIa7iECId8c-49" value="" style="endArrow=none;html=1;rounded=0;exitX=1;exitY=0.75;exitDx=0;exitDy=0;entryX=0;entryY=0.5;entryDx=0;entryDy=0;" edge="1" parent="1" source="FraqzUx0wvIa7iECId8c-18" target="FraqzUx0wvIa7iECId8c-45">
          <mxGeometry relative="1" as="geometry">
            <mxPoint x="1430" y="440" as="sourcePoint" />
            <mxPoint x="1590" y="440" as="targetPoint" />
          </mxGeometry>
        </mxCell>
        <mxCell id="FraqzUx0wvIa7iECId8c-50" value="Ciudad" style="ellipse;whiteSpace=wrap;html=1;align=center;fillColor=#ffe6cc;strokeColor=#d79b00;" vertex="1" parent="1">
          <mxGeometry x="1340" y="50" width="100" height="40" as="geometry" />
        </mxCell>
        <mxCell id="FraqzUx0wvIa7iECId8c-51" value="Nombre" style="ellipse;whiteSpace=wrap;html=1;align=center;fillColor=#f8cecc;strokeColor=#b85450;" vertex="1" parent="1">
          <mxGeometry x="1250" y="20" width="100" height="40" as="geometry" />
        </mxCell>
        <mxCell id="FraqzUx0wvIa7iECId8c-52" value="Area de perimetro" style="ellipse;whiteSpace=wrap;html=1;align=center;fillColor=#f8cecc;strokeColor=#b85450;" vertex="1" parent="1">
          <mxGeometry x="1440" y="10" width="100" height="40" as="geometry" />
        </mxCell>
        <mxCell id="FraqzUx0wvIa7iECId8c-53" value="" style="endArrow=none;html=1;rounded=0;exitX=0.5;exitY=1;exitDx=0;exitDy=0;entryX=0.5;entryY=0;entryDx=0;entryDy=0;" edge="1" parent="1" source="FraqzUx0wvIa7iECId8c-50" target="FraqzUx0wvIa7iECId8c-39">
          <mxGeometry relative="1" as="geometry">
            <mxPoint x="1280" y="120" as="sourcePoint" />
            <mxPoint x="1440" y="120" as="targetPoint" />
          </mxGeometry>
        </mxCell>
        <mxCell id="FraqzUx0wvIa7iECId8c-54" value="" style="endArrow=none;html=1;rounded=0;exitX=1;exitY=1;exitDx=0;exitDy=0;entryX=0;entryY=0;entryDx=0;entryDy=0;" edge="1" parent="1" source="FraqzUx0wvIa7iECId8c-51" target="FraqzUx0wvIa7iECId8c-50">
          <mxGeometry relative="1" as="geometry">
            <mxPoint x="1230" y="50" as="sourcePoint" />
            <mxPoint x="1390" y="50" as="targetPoint" />
          </mxGeometry>
        </mxCell>
        <mxCell id="FraqzUx0wvIa7iECId8c-55" value="" style="endArrow=none;html=1;rounded=0;exitX=1;exitY=0;exitDx=0;exitDy=0;entryX=0.5;entryY=1;entryDx=0;entryDy=0;" edge="1" parent="1" source="FraqzUx0wvIa7iECId8c-50" target="FraqzUx0wvIa7iECId8c-52">
          <mxGeometry relative="1" as="geometry">
            <mxPoint x="1460" y="20" as="sourcePoint" />
            <mxPoint x="1620" y="20" as="targetPoint" />
          </mxGeometry>
        </mxCell>
        <mxCell id="FraqzUx0wvIa7iECId8c-68" value="Efectivo" style="ellipse;whiteSpace=wrap;html=1;align=center;fillColor=#e1d5e7;strokeColor=#9673a6;" vertex="1" parent="1">
          <mxGeometry x="1380" y="380" width="100" height="40" as="geometry" />
        </mxCell>
        <mxCell id="FraqzUx0wvIa7iECId8c-69" value="Tarjeta" style="ellipse;whiteSpace=wrap;html=1;align=center;fillColor=#e1d5e7;strokeColor=#9673a6;" vertex="1" parent="1">
          <mxGeometry x="1470" y="360" width="100" height="40" as="geometry" />
        </mxCell>
        <mxCell id="FraqzUx0wvIa7iECId8c-70" value="Propietario" style="ellipse;whiteSpace=wrap;html=1;align=center;fillColor=#e1d5e7;strokeColor=#9673a6;" vertex="1" parent="1">
          <mxGeometry x="1050" y="930" width="100" height="40" as="geometry" />
        </mxCell>
        <mxCell id="FraqzUx0wvIa7iECId8c-71" value="" style="endArrow=none;html=1;rounded=0;exitX=1;exitY=1;exitDx=0;exitDy=0;entryX=0;entryY=0;entryDx=0;entryDy=0;" edge="1" parent="1" source="FraqzUx0wvIa7iECId8c-2" target="FraqzUx0wvIa7iECId8c-70">
          <mxGeometry relative="1" as="geometry">
            <mxPoint x="870" y="550" as="sourcePoint" />
            <mxPoint x="1030" y="550" as="targetPoint" />
          </mxGeometry>
        </mxCell>
        <mxCell id="FraqzUx0wvIa7iECId8c-72" value="" style="endArrow=none;html=1;rounded=0;exitX=0.5;exitY=0;exitDx=0;exitDy=0;entryX=0;entryY=1;entryDx=0;entryDy=0;" edge="1" parent="1" source="FraqzUx0wvIa7iECId8c-68" target="FraqzUx0wvIa7iECId8c-18">
          <mxGeometry relative="1" as="geometry">
            <mxPoint x="1300" y="360" as="sourcePoint" />
            <mxPoint x="1460" y="360" as="targetPoint" />
          </mxGeometry>
        </mxCell>
        <mxCell id="FraqzUx0wvIa7iECId8c-73" value="" style="endArrow=none;html=1;rounded=0;exitX=0.75;exitY=1;exitDx=0;exitDy=0;entryX=0.5;entryY=0;entryDx=0;entryDy=0;" edge="1" parent="1" source="FraqzUx0wvIa7iECId8c-18" target="FraqzUx0wvIa7iECId8c-69">
          <mxGeometry relative="1" as="geometry">
            <mxPoint x="1480" y="350" as="sourcePoint" />
            <mxPoint x="1640" y="350" as="targetPoint" />
          </mxGeometry>
        </mxCell>
        <mxCell id="FraqzUx0wvIa7iECId8c-74" style="edgeStyle=orthogonalEdgeStyle;rounded=0;orthogonalLoop=1;jettySize=auto;html=1;exitX=0.5;exitY=1;exitDx=0;exitDy=0;entryX=0.495;entryY=0.755;entryDx=0;entryDy=0;entryPerimeter=0;" edge="1" parent="1" source="FraqzUx0wvIa7iECId8c-69" target="FraqzUx0wvIa7iECId8c-69">
          <mxGeometry relative="1" as="geometry" />
        </mxCell>
      </root>
    </mxGraphModel>
  </diagram>
</mxfile>
